<svg width="71" height="71" viewBox="0 0 71 71" fill="none" xmlns="http://www.w3.org/2000/svg">
<g clip-path="url(#clip0_505_35)">
<path d="M60.6574 0.799429C58.433 0.200445 56.0901 0.196696 53.8637 0.788558C51.6374 1.38042 49.6057 2.5471 47.9723 4.17165C46.3389 5.79621 45.1613 7.82157 44.5574 10.0447C43.9535 12.2679 43.9445 14.6107 44.5315 16.8384L34.7792 32.7695L17.089 44.4912C15.1322 43.9083 13.0666 43.7895 11.0559 44.1441C9.04519 44.4988 7.14484 45.3172 5.50561 46.5344C3.86638 47.7516 2.53339 49.3341 1.61243 51.1563C0.691473 52.9785 0.207885 54.9903 0.20004 57.0321C0.196552 58.913 0.5974 60.7728 1.37544 62.4853C2.15347 64.1979 3.29052 65.7231 4.70952 66.9579C6.12853 68.1926 7.79636 69.1079 9.6 69.6417C11.4036 70.1755 13.301 70.3155 15.1634 70.052C17.0258 69.7885 18.8099 69.1278 20.3947 68.1147C21.9795 67.1015 23.328 65.7595 24.3488 64.1796C25.3697 62.5998 26.0391 60.819 26.3116 58.9578C26.5841 57.0967 26.4533 55.1987 25.9282 53.3925L38.2678 36.2809L53.7588 26.1303C55.9835 26.7346 58.328 26.7431 60.557 26.1549C62.786 25.5668 64.8211 24.4027 66.458 22.7795C68.0949 21.1562 69.276 19.131 69.8829 16.907C70.4897 14.6831 70.5009 12.3386 69.9154 10.1089L60.5137 19.4453L52.8277 17.8278L51.2602 10.1358L60.6574 0.799429ZM21.0095 59.1647L20.8882 61.4743L18.9373 62.7236L17.6753 64.6664L15.3606 64.7726L13.2965 65.8246L11.2394 64.7592L8.92537 64.6379L7.67608 62.687L5.73329 61.4251L5.62706 59.1103L4.57502 57.0463L5.64045 54.9891L5.76172 52.6751L7.71267 51.4258L8.97461 49.483L11.2893 49.3768L13.3534 48.3247L15.4106 49.3902L17.7246 49.5114L18.9739 51.4624L20.9166 52.7243L21.0229 55.0391L22.0749 57.1031L21.0095 59.1647Z" fill="white"/>
<path d="M1.44602 10.7258C0.854266 12.9522 0.858129 15.2951 1.45722 17.5195C2.05631 19.744 3.22959 21.7718 4.85944 23.3999C6.4893 25.028 8.51847 26.1991 10.7436 26.7958C12.9687 27.3924 15.3115 27.3937 17.5373 26.7996L33.5 36.5L45.2791 54.1521C44.7026 56.1107 44.5905 58.1767 44.9517 60.1863C45.3128 62.1958 46.1374 64.0935 47.3599 65.7288C48.5825 67.364 50.1693 68.6919 51.9945 69.6069C53.8197 70.5219 55.833 70.999 57.8748 71.0002C59.7558 70.9976 61.6142 70.5907 63.3242 69.8071C65.0342 69.0235 66.5558 67.8815 67.7859 66.4585C69.016 65.0355 69.9258 63.3647 70.4538 61.5593C70.9818 59.7539 71.1156 57.8562 70.846 55.9946C70.5765 54.133 69.91 52.3511 68.8917 50.7696C67.8734 49.1881 66.527 47.844 64.9439 46.8283C63.3607 45.8126 61.5777 45.149 59.7157 44.8825C57.8537 44.6161 55.9561 44.753 54.1516 45.2839L37 33L26.7991 17.5421C27.3962 15.3154 27.3971 12.9709 26.8017 10.7439C26.2063 8.51681 25.0356 6.48552 23.4071 4.85389C21.7786 3.22227 19.7495 2.0477 17.5236 1.44807C15.2976 0.848448 12.9531 0.844866 10.7254 1.43769L20.0923 10.8089L18.4998 18.5002L10.8129 20.0927L1.44602 10.7258ZM59.9398 50.1839L62.2498 50.2977L63.5054 52.2446L65.4523 53.5002L65.566 55.8146L66.6248 57.8752L65.566 59.9358L65.4523 62.2502L63.5054 63.5058L62.2498 65.4527L59.9354 65.5664L57.8748 66.6252L55.8141 65.5664L53.4998 65.4527L52.2441 63.5058L50.2973 62.2502L50.1835 59.9358L49.1248 57.8752L50.1835 55.8146L50.2973 53.5002L52.2441 52.2446L53.4998 50.2977L55.8141 50.1839L57.8748 49.1252L59.9398 50.1839Z" fill="white"/>
</g>
<defs>
<clipPath id="clip0_505_35">
<rect width="70" height="70" fill="white" transform="translate(70.3846 0.38501) rotate(90.1862)"/>
</clipPath>
</defs>
</svg>
